<svg width="108" height="112" viewBox="0 0 108 112" fill="none" xmlns="http://www.w3.org/2000/svg">
<g filter="url(#filter0_f_70_209)">
<path d="M86.0448 41.1123C88.8946 34.7038 80.908 25.8848 80.3391 25.2717C79.436 24.2955 71.846 16.1105 64.4999 18.3279C56.2707 20.8141 51.8986 35.307 57.2706 42.7729C63.6555 51.6597 82.5536 48.9152 86.0402 41.1013L86.0448 41.1123Z" fill="#8B5CF6"/>
</g>
<g filter="url(#filter1_f_70_209)">
<path d="M22.7363 88.7188C21.7452 88.7617 17.9358 79.5389 21.7806 73.4347C25.0246 68.2686 30.7176 70.1721 41.8568 64.5212C46.3436 62.2425 56.3332 57.1795 56.1779 51.2235C56.0541 46.4172 49.452 45.9176 47.3897 39.3052C45.4453 33.0953 48.4162 24.4262 54.285 21.4359C62.0101 17.5082 74.3344 23.6333 76.7169 31.3125C80.597 43.8651 60.4239 68.6355 40.7689 71.2725C36.8398 71.8043 30.0212 71.8353 26.084 76.738C22.06 81.7418 23.5926 88.6938 22.7409 88.7297L22.7363 88.7188Z" fill="#2DD4BF"/>
</g>
<g opacity="0.7" filter="url(#filter2_f_70_209)">
<path d="M51.2079 85.3752C47.4712 81.1586 40.7072 80.8546 36.1665 84.0033C30.8733 87.6759 29.6391 95.3198 32.5155 99.3166C36.5954 104.974 49.328 103.776 52.843 96.9036C54.6067 93.4558 54.0441 88.5795 51.2079 85.3752Z" fill="url(#paint0_linear_70_209)" fill-opacity="0.28"/>
</g>
<g filter="url(#filter3_f_70_209)">
<path d="M89.328 78.6558C91.9438 79.582 98.4995 73.033 96.7902 69.1921C95.7705 66.8954 91.845 65.6554 89.503 66.9138C85.5887 69.0158 86.8013 77.7566 89.3436 78.6621L89.328 78.6558Z" fill="#2DD4BF"/>
</g>
<defs>
<filter id="filter0_f_70_209" x="44.4075" y="7.44852" width="52.7499" height="51.359" filterUnits="userSpaceOnUse" color-interpolation-filters="sRGB">
<feFlood flood-opacity="0" result="BackgroundImageFix"/>
<feBlend mode="normal" in="SourceGraphic" in2="BackgroundImageFix" result="shape"/>
<feGaussianBlur stdDeviation="5.25" result="effect1_foregroundBlur_70_209"/>
</filter>
<filter id="filter1_f_70_209" x="0.147779" y="0.262129" width="97.0023" height="108.418" filterUnits="userSpaceOnUse" color-interpolation-filters="sRGB">
<feFlood flood-opacity="0" result="BackgroundImageFix"/>
<feBlend mode="normal" in="SourceGraphic" in2="BackgroundImageFix" result="shape"/>
<feGaussianBlur stdDeviation="9.975" result="effect1_foregroundBlur_70_209"/>
</filter>
<filter id="filter2_f_70_209" x="24.0037" y="74.8914" width="36.8451" height="35.0142" filterUnits="userSpaceOnUse" color-interpolation-filters="sRGB">
<feFlood flood-opacity="0" result="BackgroundImageFix"/>
<feBlend mode="normal" in="SourceGraphic" in2="BackgroundImageFix" result="shape"/>
<feGaussianBlur stdDeviation="3.5" result="effect1_foregroundBlur_70_209"/>
</filter>
<filter id="filter3_f_70_209" x="76.4862" y="55.9125" width="31.0845" height="33.332" filterUnits="userSpaceOnUse" color-interpolation-filters="sRGB">
<feFlood flood-opacity="0" result="BackgroundImageFix"/>
<feBlend mode="normal" in="SourceGraphic" in2="BackgroundImageFix" result="shape"/>
<feGaussianBlur stdDeviation="5.25" result="effect1_foregroundBlur_70_209"/>
</filter>
<linearGradient id="paint0_linear_70_209" x1="51.6741" y1="85.9362" x2="32.6752" y2="99.5397" gradientUnits="userSpaceOnUse">
<stop offset="0.223958" stop-color="#FFE600"/>
<stop offset="1" stop-color="#CCFF00" stop-opacity="0"/>
</linearGradient>
</defs>
</svg>
